<svg xmlns="http://www.w3.org/2000/svg" xmlns:xlink="http://www.w3.org/1999/xlink" width="3170" height="939" viewBox="0 0 3170 939">
  <defs>
    <clipPath id="clip-Artboard_4">
      <rect width="3170" height="939"/>
    </clipPath>
  </defs>
  <g id="Artboard_4" data-name="Artboard – 4" clip-path="url(#clip-Artboard_4)">
    <rect width="3170" height="939" fill="rgba(255,255,255,0)"/>
    <g id="Group_1" data-name="Group 1" transform="translate(65.291 -292)">
      <path id="logo" d="M243.159,624.45v60.79q0,10.132-10.132,10.132h-60.79q-10.132,0-10.132-10.132V624.45q0-10.132,10.132-10.132h60.79Q243.159,614.318,243.159,624.45Zm81.053-162.106v60.79q0,10.132-10.132,10.132H172.238q-10.132,0-10.132-10.132v-60.79q0-10.132,10.132-10.132H314.081Q324.212,452.212,324.212,462.344ZM243.159,300.238v60.79q0,10.132-10.132,10.132h-60.79q-10.132,0-10.132-10.132v-60.79q0-10.132,10.132-10.132h60.79Q243.159,290.106,243.159,300.238ZM891.584,624.45v60.79q0,10.132-10.132,10.132H334.344q-10.132,0-10.132-10.132V624.45q0-10.132,10.132-10.132H881.452Q891.584,614.318,891.584,624.45ZM486.319,462.344v60.79q0,10.132-10.132,10.132H415.4q-10.132,0-10.132-10.132v-60.79q0-10.132,10.132-10.132h60.79Q486.319,452.212,486.319,462.344ZM405.265,300.238v60.79q0,10.132-10.132,10.132h-60.79q-10.132,0-10.132-10.132v-60.79q0-10.132,10.132-10.132h60.79Q405.265,290.106,405.265,300.238ZM648.425,462.344v60.79q0,10.132-10.132,10.132H577.5q-10.132,0-10.132-10.132v-60.79q0-10.132,10.132-10.132h60.79Q648.425,452.212,648.425,462.344ZM567.372,300.238v60.79q0,10.132-10.132,10.132H496.45q-10.132,0-10.132-10.132v-60.79q0-10.132,10.132-10.132h60.79Q567.372,290.106,567.372,300.238ZM810.531,462.344v60.79q0,10.132-10.132,10.132h-60.79q-10.132,0-10.132-10.132v-60.79q0-10.132,10.132-10.132H800.4Q810.531,452.212,810.531,462.344ZM1053.69,624.45v60.79q0,10.132-10.132,10.132h-60.79q-10.132,0-10.132-10.132V624.45q0-10.132,10.132-10.132h60.79Q1053.69,614.318,1053.69,624.45ZM729.478,300.238v60.79q0,10.132-10.132,10.132h-60.79q-10.132,0-10.132-10.132v-60.79q0-10.132,10.132-10.132h60.79Q729.478,290.106,729.478,300.238Zm162.106,0v60.79q0,10.132-10.132,10.132h-60.79q-10.132,0-10.132-10.132v-60.79q0-10.132,10.132-10.132h60.79Q891.584,290.106,891.584,300.238Zm162.106,0v222.9q0,10.132-10.132,10.132H901.716q-10.132,0-10.132-10.132v-60.79q0-10.132,10.132-10.132h70.921V300.238q0-10.132,10.132-10.132h60.79Q1053.69,290.106,1053.69,300.238Zm81.053,476.187V209.053H81.053V776.425ZM1215.8,209.053V776.425q0,33.561-23.746,57.307t-57.307,23.746H81.053q-33.561,0-57.307-23.746T0,776.425V209.053q0-33.561,23.746-57.307T81.053,128h1053.69q33.561,0,57.307,23.746T1215.8,209.053Z" transform="translate(166.71 269.226)" fill="#130654"/>
      <text id="kle-py" transform="translate(1513.549 917)" fill="#130654" font-size="450" font-family="OpenSans-Bold, Open Sans" font-weight="700"><tspan x="0" y="0">kle-py</tspan></text>
    </g>
  </g>
</svg>
